<?xml version="1.0" encoding="UTF-8" standalone="no"?><!DOCTYPE svg PUBLIC "-//W3C//DTD SVG 1.1//EN" "http://www.w3.org/Graphics/SVG/1.1/DTD/svg11.dtd"><svg width="100%" height="100%" viewBox="0 0 191 34" version="1.1" xmlns="http://www.w3.org/2000/svg" xmlns:xlink="http://www.w3.org/1999/xlink" xml:space="preserve" style="fill-rule:evenodd;clip-rule:evenodd;stroke-linejoin:round;stroke-miterlimit:1.41421;"><rect id="Artboard2" x="0" y="0" width="191" height="34" style="fill:none;"/><path d="M16.28,0l-2,0l-14.28,34l2,0l14.28,-34Z"/><path d="M79.814,0l-2,0l-14.279,34l2,0l14.279,-34Z"/><path d="M24.222,0l-2,0l-14.28,34l2,0l14.28,-34Z"/><path d="M87.756,0l-2,0l-14.28,34l2,0l14.28,-34Z"/><path d="M143.349,0l-2,0l-14.28,34l2,0l14.28,-34Z"/><path d="M32.164,0l-2,0l-14.28,34l2,0l14.28,-34Z"/><path d="M95.698,0l-2,0l-14.28,34l2,0l14.28,-34Z"/><path d="M151.291,0l-2,0l-14.28,34l2,0l14.28,-34Z"/><path d="M40.105,0l-2,0l-14.28,34l2,0l14.28,-34Z"/><path d="M103.64,0l-2,0l-14.28,34l2,0l14.28,-34Z"/><path d="M159.233,0l-2,0l-14.28,34l2,0l14.28,-34Z"/><path d="M48.047,0l-2,0l-14.28,34l2,0l14.28,-34Z"/><path d="M111.582,0l-2,0l-14.28,34l2,0l14.28,-34Z"/><path d="M167.175,0l-2,0l-14.28,34l2,0l14.28,-34Z"/><path d="M55.989,0l-2,0l-14.28,34l2,0l14.28,-34Z"/><path d="M119.524,0l-2,0l-14.28,34l2,0l14.28,-34Z"/><path d="M175.116,0l-2,0l-14.28,34l2,0l14.28,-34Z"/><path d="M63.931,0l-2,0l-14.28,34l2,0l14.28,-34Z"/><path d="M127.465,0l-2,0l-14.279,34l2,0l14.279,-34Z"/><path d="M183.058,0l-2,0l-14.28,34l2,0l14.28,-34Z"/><path d="M71.873,0l-2,0l-14.28,34l2,0l14.28,-34Z"/><path d="M135.407,0l-2,0l-14.28,34l2,0l14.28,-34Z"/><path d="M191,0l-2,0l-14.28,34l2,0l14.28,-34Z"/></svg>