<?xml version="1.0" encoding="UTF-8" standalone="no"?><!DOCTYPE svg PUBLIC "-//W3C//DTD SVG 1.1//EN" "http://www.w3.org/Graphics/SVG/1.1/DTD/svg11.dtd"><svg width="100%" height="100%" viewBox="0 0 200 59" version="1.1" xmlns="http://www.w3.org/2000/svg" xmlns:xlink="http://www.w3.org/1999/xlink" xml:space="preserve" style="fill-rule:evenodd;clip-rule:evenodd;stroke-linejoin:round;stroke-miterlimit:1.41421;"><rect id="Artboard1" x="0" y="0" width="200" height="58.318" style="fill:none;"/><clipPath id="_clip1"><rect id="Artboard11" x="0" y="0" width="200" height="58.318"/></clipPath><g clip-path="url(#_clip1)"><g><path d="M16.312,15.03l-16.312,0l0,-14.918l50.54,0l0,14.918l-16.306,0l0,43.288l-17.922,0l0,-43.288Z" style="fill:#ee3523;fill-rule:nonzero;"/><path d="M53.326,0.112l49.062,0l0,14.918l-31.129,0l0,7.253l31.129,0l0,13.863l-31.129,0l0,7.254l31.137,0l0,14.918l-49.07,0l0,-58.206Z" style="fill:#ee3523;fill-rule:nonzero;"/><path d="M123.338,43.4l7.013,0c11.172,0 12.805,-9.052 12.805,-14.52c0,-3.661 -1.148,-13.85 -14.11,-13.85l-5.708,0l0,28.37Zm-17.932,-43.288l29.428,0c19.399,0 26.255,14.348 26.255,29.017c0,17.858 -9.457,29.189 -29.756,29.189l-25.927,0l0,-58.206Z" style="fill:#ee3523;fill-rule:nonzero;"/><path d="M186.857,35.888l-5.47,-9.072l-5.335,9.072l-13.139,0l12.474,-18.343l-12.012,-17.545l13.144,0l4.868,8.673l5.007,-8.673l13.14,0l-12.007,17.545l12.473,18.343l-13.143,0Z" style="fill:#ee3523;fill-rule:nonzero;"/></g></g></svg>