<?xml version="1.0" encoding="UTF-8" standalone="no"?><!DOCTYPE svg PUBLIC "-//W3C//DTD SVG 1.1//EN" "http://www.w3.org/Graphics/SVG/1.1/DTD/svg11.dtd"><svg width="100%" height="100%" viewBox="0 0 553 82" version="1.1" xmlns="http://www.w3.org/2000/svg" xmlns:xlink="http://www.w3.org/1999/xlink" xml:space="preserve" style="fill-rule:evenodd;clip-rule:evenodd;stroke-linejoin:round;stroke-miterlimit:1.41421;"><rect id="Artboard2" x="0" y="0" width="552.164" height="81.194" style="fill:none;"/><clipPath id="_clip1"><rect id="Artboard21" x="0" y="0" width="552.164" height="81.194"/></clipPath><g clip-path="url(#_clip1)"><g><path d="M1.787,31.606l15.189,0c0,-2.084 0.205,-4.188 0.614,-6.31c0.41,-2.122 1.098,-4.057 2.066,-5.807c0.968,-1.75 2.253,-3.165 3.853,-4.244c1.601,-1.08 3.556,-1.62 5.864,-1.62c3.425,0 6.235,1.061 8.432,3.183c2.196,2.122 3.295,5.082 3.295,8.879c0,2.383 -0.54,4.505 -1.62,6.366c-1.079,1.862 -2.42,3.537 -4.02,5.026c-1.601,1.489 -3.37,2.848 -5.305,4.076c-1.936,1.229 -3.76,2.439 -5.473,3.63c-3.35,2.308 -6.533,4.579 -9.549,6.813c-3.015,2.234 -5.64,4.672 -7.874,7.315c-2.233,2.643 -4.002,5.64 -5.305,8.991c-1.303,3.35 -1.954,7.296 -1.954,11.838l57.405,0l0,-13.625l-36.967,0c1.936,-2.681 4.17,-5.026 6.701,-7.036c2.532,-2.011 5.138,-3.891 7.818,-5.64c2.68,-1.75 5.342,-3.518 7.985,-5.305c2.644,-1.787 5.008,-3.779 7.092,-5.975c2.085,-2.197 3.76,-4.71 5.026,-7.539c1.266,-2.829 1.899,-6.217 1.899,-10.163c0,-3.798 -0.726,-7.222 -2.178,-10.275c-1.452,-3.053 -3.406,-5.622 -5.864,-7.706c-2.457,-2.085 -5.305,-3.686 -8.543,-4.803c-3.239,-1.117 -6.646,-1.675 -10.219,-1.675c-4.691,0 -8.842,0.8 -12.453,2.401c-3.611,1.601 -6.608,3.835 -8.991,6.701c-2.382,2.867 -4.169,6.217 -5.36,10.052c-1.192,3.834 -1.713,7.985 -1.564,12.452Z" style="fill:#fff;fill-rule:nonzero;"/><path d="M63.883,31.606l15.189,0c0,-2.084 0.205,-4.188 0.614,-6.31c0.41,-2.122 1.099,-4.057 2.066,-5.807c0.968,-1.75 2.253,-3.165 3.854,-4.244c1.6,-1.08 3.555,-1.62 5.863,-1.62c3.425,0 6.236,1.061 8.432,3.183c2.197,2.122 3.295,5.082 3.295,8.879c0,2.383 -0.54,4.505 -1.62,6.366c-1.079,1.862 -2.419,3.537 -4.02,5.026c-1.601,1.489 -3.369,2.848 -5.305,4.076c-1.936,1.229 -3.76,2.439 -5.473,3.63c-3.35,2.308 -6.533,4.579 -9.549,6.813c-3.015,2.234 -5.64,4.672 -7.873,7.315c-2.234,2.643 -4.002,5.64 -5.305,8.991c-1.303,3.35 -1.955,7.296 -1.955,11.838l57.406,0l0,-13.625l-36.968,0c1.936,-2.681 4.17,-5.026 6.701,-7.036c2.532,-2.011 5.138,-3.891 7.818,-5.64c2.681,-1.75 5.342,-3.518 7.986,-5.305c2.643,-1.787 5.007,-3.779 7.091,-5.975c2.085,-2.197 3.76,-4.71 5.026,-7.539c1.266,-2.829 1.899,-6.217 1.899,-10.163c0,-3.798 -0.726,-7.222 -2.178,-10.275c-1.452,-3.053 -3.406,-5.622 -5.863,-7.706c-2.457,-2.085 -5.305,-3.686 -8.544,-4.803c-3.239,-1.117 -6.645,-1.675 -10.219,-1.675c-4.691,0 -8.842,0.8 -12.453,2.401c-3.611,1.601 -6.608,3.835 -8.991,6.701c-2.382,2.867 -4.169,6.217 -5.36,10.052c-1.192,3.834 -1.713,7.985 -1.564,12.452Z" style="fill:#fff;fill-rule:nonzero;"/><rect x="128.548" y="62.543" width="17.534" height="17.199" style="fill:#fff;fill-rule:nonzero;"/><path d="M171.099,40.318c0,-1.34 0.019,-2.96 0.056,-4.858c0.038,-1.899 0.168,-3.854 0.391,-5.864c0.224,-2.01 0.596,-4.002 1.117,-5.975c0.521,-1.973 1.247,-3.741 2.178,-5.305c0.931,-1.563 2.122,-2.829 3.574,-3.797c1.452,-0.968 3.257,-1.452 5.416,-1.452c2.16,0 3.984,0.484 5.473,1.452c1.489,0.968 2.718,2.234 3.685,3.797c0.968,1.564 1.694,3.332 2.178,5.305c0.484,1.973 0.857,3.965 1.117,5.975c0.261,2.01 0.41,3.965 0.447,5.864c0.037,1.898 0.056,3.518 0.056,4.858c0,2.233 -0.075,4.933 -0.224,8.097c-0.149,3.164 -0.614,6.217 -1.396,9.158c-0.782,2.941 -2.047,5.454 -3.797,7.539c-1.75,2.084 -4.263,3.127 -7.539,3.127c-3.201,0 -5.658,-1.043 -7.371,-3.127c-1.712,-2.085 -2.959,-4.598 -3.741,-7.539c-0.782,-2.941 -1.247,-5.994 -1.396,-9.158c-0.149,-3.164 -0.224,-5.864 -0.224,-8.097Zm-15.859,0c0,7.818 0.764,14.351 2.29,19.6c1.526,5.249 3.592,9.438 6.198,12.565c2.606,3.127 5.64,5.361 9.103,6.701c3.462,1.34 7.129,2.01 11,2.01c3.947,0 7.651,-0.67 11.113,-2.01c3.462,-1.34 6.515,-3.574 9.158,-6.701c2.643,-3.127 4.728,-7.316 6.254,-12.565c1.527,-5.249 2.29,-11.782 2.29,-19.6c0,-7.595 -0.763,-13.979 -2.29,-19.154c-1.526,-5.175 -3.611,-9.326 -6.254,-12.453c-2.643,-3.127 -5.696,-5.36 -9.158,-6.701c-3.462,-1.34 -7.166,-2.01 -11.113,-2.01c-3.871,0 -7.538,0.67 -11,2.01c-3.463,1.341 -6.497,3.574 -9.103,6.701c-2.606,3.127 -4.672,7.278 -6.198,12.453c-1.526,5.175 -2.29,11.559 -2.29,19.154Z" style="fill:#fff;fill-rule:nonzero;"/><path d="M249.836,21.443l0,27.139l-20.549,0l20.214,-27.139l0.335,0Zm0,40.206l0,18.093l15.078,0l0,-18.093l10.386,0l0,-13.067l-10.386,0l0,-47.018l-14.184,0l-33.952,45.567l0,14.518l33.058,0Z" style="fill:#fff;fill-rule:nonzero;"/><rect x="283.788" y="62.543" width="17.534" height="17.199" style="fill:#fff;fill-rule:nonzero;"/><path d="M312.268,31.606l15.189,0c0,-2.084 0.204,-4.188 0.614,-6.31c0.409,-2.122 1.098,-4.057 2.066,-5.807c0.968,-1.75 2.252,-3.165 3.853,-4.244c1.601,-1.08 3.555,-1.62 5.864,-1.62c3.424,0 6.235,1.061 8.432,3.183c2.196,2.122 3.294,5.082 3.294,8.879c0,2.383 -0.539,4.505 -1.619,6.366c-1.08,1.862 -2.42,3.537 -4.021,5.026c-1.601,1.489 -3.369,2.848 -5.305,4.076c-1.936,1.229 -3.76,2.439 -5.472,3.63c-3.351,2.308 -6.534,4.579 -9.549,6.813c-3.016,2.234 -5.64,4.672 -7.874,7.315c-2.234,2.643 -4.002,5.64 -5.305,8.991c-1.303,3.35 -1.954,7.296 -1.954,11.838l57.405,0l0,-13.625l-36.967,0c1.936,-2.681 4.169,-5.026 6.701,-7.036c2.531,-2.011 5.137,-3.891 7.818,-5.64c2.68,-1.75 5.342,-3.518 7.985,-5.305c2.643,-1.787 5.007,-3.779 7.092,-5.975c2.085,-2.197 3.76,-4.71 5.026,-7.539c1.266,-2.829 1.898,-6.217 1.898,-10.163c0,-3.798 -0.726,-7.222 -2.177,-10.275c-1.452,-3.053 -3.407,-5.622 -5.864,-7.706c-2.457,-2.085 -5.305,-3.686 -8.544,-4.803c-3.238,-1.117 -6.645,-1.675 -10.219,-1.675c-4.69,0 -8.841,0.8 -12.452,2.401c-3.612,1.601 -6.608,3.835 -8.991,6.701c-2.383,2.867 -4.169,6.217 -5.361,10.052c-1.191,3.834 -1.712,7.985 -1.563,12.452Z" style="fill:#fff;fill-rule:nonzero;"/><path d="M388.436,40.318c0,-1.34 0.019,-2.96 0.056,-4.858c0.037,-1.899 0.167,-3.854 0.391,-5.864c0.223,-2.01 0.595,-4.002 1.117,-5.975c0.521,-1.973 1.247,-3.741 2.177,-5.305c0.931,-1.563 2.122,-2.829 3.574,-3.797c1.452,-0.968 3.258,-1.452 5.417,-1.452c2.159,0 3.983,0.484 5.472,1.452c1.489,0.968 2.718,2.234 3.686,3.797c0.968,1.564 1.694,3.332 2.178,5.305c0.484,1.973 0.856,3.965 1.117,5.975c0.26,2.01 0.409,3.965 0.446,5.864c0.038,1.898 0.056,3.518 0.056,4.858c0,2.233 -0.074,4.933 -0.223,8.097c-0.149,3.164 -0.614,6.217 -1.396,9.158c-0.782,2.941 -2.048,5.454 -3.797,7.539c-1.75,2.084 -4.263,3.127 -7.539,3.127c-3.202,0 -5.659,-1.043 -7.371,-3.127c-1.713,-2.085 -2.96,-4.598 -3.742,-7.539c-0.781,-2.941 -1.247,-5.994 -1.396,-9.158c-0.149,-3.164 -0.223,-5.864 -0.223,-8.097Zm-15.859,0c0,7.818 0.763,14.351 2.289,19.6c1.527,5.249 3.593,9.438 6.199,12.565c2.606,3.127 5.64,5.361 9.102,6.701c3.462,1.34 7.129,2.01 11.001,2.01c3.946,0 7.65,-0.67 11.112,-2.01c3.463,-1.34 6.515,-3.574 9.158,-6.701c2.644,-3.127 4.728,-7.316 6.255,-12.565c1.526,-5.249 2.289,-11.782 2.289,-19.6c0,-7.595 -0.763,-13.979 -2.289,-19.154c-1.527,-5.175 -3.611,-9.326 -6.255,-12.453c-2.643,-3.127 -5.695,-5.36 -9.158,-6.701c-3.462,-1.34 -7.166,-2.01 -11.112,-2.01c-3.872,0 -7.539,0.67 -11.001,2.01c-3.462,1.341 -6.496,3.574 -9.102,6.701c-2.606,3.127 -4.672,7.278 -6.199,12.453c-1.526,5.175 -2.289,11.559 -2.289,19.154Z" style="fill:#fff;fill-rule:nonzero;"/><path d="M476.108,79.742l0,-78.178l-12.621,0c-0.446,2.978 -1.377,5.472 -2.792,7.482c-1.414,2.011 -3.145,3.63 -5.193,4.859c-2.048,1.228 -4.356,2.084 -6.924,2.568c-2.569,0.484 -5.231,0.689 -7.986,0.615l0,11.95l19.657,0l0,50.704l15.859,0Z" style="fill:#fff;fill-rule:nonzero;"/><path d="M552.164,15.189l0,-13.625l-53.385,0l0,14.742l37.079,0c-7.445,9.009 -13.457,18.912 -18.036,29.708c-4.58,10.796 -7.316,22.039 -8.209,33.728l16.976,0c0.074,-5.212 0.688,-10.833 1.842,-16.864c1.155,-6.031 2.793,-11.987 4.915,-17.869c2.122,-5.882 4.765,-11.429 7.929,-16.641c3.164,-5.212 6.794,-9.605 10.889,-13.179Z" style="fill:#fff;fill-rule:nonzero;"/></g></g></svg>