<?xml version="1.0" encoding="UTF-8" standalone="no"?><!DOCTYPE svg PUBLIC "-//W3C//DTD SVG 1.1//EN" "http://www.w3.org/Graphics/SVG/1.1/DTD/svg11.dtd"><svg width="100%" height="100%" viewBox="0 0 808 173" version="1.1" xmlns="http://www.w3.org/2000/svg" xmlns:xlink="http://www.w3.org/1999/xlink" xml:space="preserve" style="fill-rule:evenodd;clip-rule:evenodd;stroke-linejoin:round;stroke-miterlimit:1.41421;"><rect id="Artboard1" x="0" y="0" width="807.225" height="172.766" style="fill:none;"/><clipPath id="_clip1"><rect x="0" y="0" width="807.225" height="172.766"/></clipPath><g clip-path="url(#_clip1)"><g><g><path d="M10.605,151.936l-7.567,-10.905l7.211,0l4.05,6.009l4.006,-6.009l6.988,0l-7.567,10.771l8.502,12.241l-7.211,0l-4.807,-7.255l-4.807,7.255l-7.077,0l8.279,-12.107Z" style="fill:#ee3523;fill-rule:nonzero;"/><path d="M56.181,159.948l-22.478,0l0,-4.763l22.478,0l0,4.763Zm0,-9.526l-22.478,0l0,-4.762l22.478,0l0,4.762Z" style="fill:#030404;fill-rule:nonzero;"/><path d="M67.084,141.031l6.32,0l0,23.012l-6.32,0l0,-23.012Zm6.32,-3.561l-6.32,0l0,-5.208l6.32,0l0,5.208Z" style="fill:#030404;fill-rule:nonzero;"/><path d="M77.498,141.031l6.009,0l0,3.204l0.134,0c1.602,-2.581 4.362,-3.827 7.032,-3.827c6.721,0 8.413,3.783 8.413,9.48l0,14.155l-6.321,0l0,-12.998c0,-3.783 -1.113,-5.652 -4.05,-5.652c-3.427,0 -4.896,1.914 -4.896,6.588l0,12.062l-6.321,0l0,-23.012Z" style="fill:#030404;fill-rule:nonzero;"/><path d="M113.905,145.17c-4.139,0 -5.564,3.561 -5.564,7.345c0,3.605 1.647,7.388 5.564,7.388c4.184,0 5.431,-3.65 5.431,-7.433c0,-3.739 -1.336,-7.3 -5.431,-7.3Zm5.519,15.935l-0.088,0c-1.469,2.492 -4.051,3.561 -6.989,3.561c-6.943,0 -10.326,-5.965 -10.326,-12.33c0,-6.187 3.427,-11.928 10.193,-11.928c2.715,0 5.386,1.157 6.854,3.427l-0.044,0l0.089,0l0,-11.573l6.32,0l0,31.781l-6.009,0l0,-2.938Z" style="fill:#030404;fill-rule:nonzero;"/><path d="M144.793,150.066c-0.579,-3.204 -1.958,-4.896 -5.03,-4.896c-4.006,0 -5.163,3.116 -5.252,4.896l10.282,0Zm-10.282,4.006c0.178,4.006 2.137,5.831 5.653,5.831c2.537,0 4.585,-1.558 4.985,-2.982l5.564,0c-1.781,5.43 -5.564,7.745 -10.771,7.745c-7.256,0 -11.751,-4.985 -11.751,-12.107c0,-6.899 4.762,-12.151 11.751,-12.151c7.833,0 11.617,6.587 11.171,13.664l-16.602,0Z" style="fill:#030404;fill-rule:nonzero;"/><path d="M171.052,152.604c0,-3.65 -1.469,-7.434 -5.519,-7.434c-4.139,0 -5.475,3.695 -5.475,7.434c0,3.738 1.425,7.299 5.519,7.299c4.14,0 5.475,-3.561 5.475,-7.299Zm-17.092,-11.573l6.009,0l0,2.938l0.089,0c1.513,-2.448 4.006,-3.561 6.855,-3.561c7.21,0 10.46,5.831 10.46,12.373c0,6.143 -3.383,11.885 -10.104,11.885c-2.76,0 -5.386,-1.202 -6.899,-3.472l-0.089,0l0,10.949l-6.321,0l0,-31.112Z" style="fill:#030404;fill-rule:nonzero;"/><path d="M195.753,150.066c-0.579,-3.204 -1.958,-4.896 -5.03,-4.896c-4.006,0 -5.163,3.116 -5.252,4.896l10.282,0Zm-10.282,4.006c0.178,4.006 2.137,5.831 5.653,5.831c2.537,0 4.585,-1.558 4.985,-2.982l5.564,0c-1.781,5.43 -5.564,7.745 -10.772,7.745c-7.255,0 -11.75,-4.985 -11.75,-12.107c0,-6.899 4.762,-12.151 11.75,-12.151c7.834,0 11.618,6.587 11.172,13.664l-16.602,0Z" style="fill:#030404;fill-rule:nonzero;"/><path d="M204.92,141.031l6.009,0l0,3.204l0.134,0c1.602,-2.581 4.361,-3.827 7.032,-3.827c6.721,0 8.412,3.783 8.412,9.48l0,14.155l-6.32,0l0,-12.998c0,-3.783 -1.113,-5.652 -4.05,-5.652c-3.427,0 -4.897,1.914 -4.897,6.588l0,12.062l-6.32,0l0,-23.012Z" style="fill:#030404;fill-rule:nonzero;"/><path d="M241.327,145.17c-4.139,0 -5.564,3.561 -5.564,7.345c0,3.605 1.647,7.388 5.564,7.388c4.184,0 5.43,-3.65 5.43,-7.433c0,-3.739 -1.335,-7.3 -5.43,-7.3Zm5.519,15.935l-0.089,0c-1.468,2.492 -4.05,3.561 -6.988,3.561c-6.943,0 -10.326,-5.965 -10.326,-12.33c0,-6.187 3.427,-11.928 10.193,-11.928c2.715,0 5.386,1.157 6.854,3.427l-0.044,0l0.089,0l0,-11.573l6.32,0l0,31.781l-6.009,0l0,-2.938Z" style="fill:#030404;fill-rule:nonzero;"/><path d="M272.215,150.066c-0.579,-3.204 -1.959,-4.896 -5.03,-4.896c-4.006,0 -5.163,3.116 -5.252,4.896l10.282,0Zm-10.282,4.006c0.178,4.006 2.136,5.831 5.653,5.831c2.537,0 4.585,-1.558 4.985,-2.982l5.564,0c-1.781,5.43 -5.564,7.745 -10.772,7.745c-7.255,0 -11.75,-4.985 -11.75,-12.107c0,-6.899 4.762,-12.151 11.75,-12.151c7.834,0 11.618,6.587 11.172,13.664l-16.602,0Z" style="fill:#030404;fill-rule:nonzero;"/><path d="M281.382,141.031l6.009,0l0,3.204l0.134,0c1.602,-2.581 4.361,-3.827 7.032,-3.827c6.721,0 8.412,3.783 8.412,9.48l0,14.155l-6.32,0l0,-12.998c0,-3.783 -1.113,-5.652 -4.05,-5.652c-3.427,0 -4.896,1.914 -4.896,6.588l0,12.062l-6.321,0l0,-23.012Z" style="fill:#030404;fill-rule:nonzero;"/><path d="M314.896,141.031l4.629,0l0,4.228l-4.629,0l0,11.395c0,2.137 0.534,2.67 2.671,2.67c0.667,0 1.29,-0.044 1.958,-0.177l0,4.94c-1.068,0.178 -2.448,0.223 -3.694,0.223c-3.873,0 -7.256,-0.89 -7.256,-5.475l0,-13.576l-3.827,0l0,-4.228l3.827,0l0,-6.899l6.321,0l0,6.899Z" style="fill:#030404;fill-rule:nonzero;"/><rect x="321.838" y="132.262" width="6.32" height="31.781" style="fill:#030404;fill-rule:nonzero;"/><path d="M343.603,166.936c-1.38,3.694 -3.561,5.207 -7.923,5.207c-1.291,0 -2.582,-0.089 -3.872,-0.223l0,-5.207c1.201,0.089 2.447,0.267 3.694,0.223c2.181,-0.223 2.893,-2.493 2.181,-4.318l-8.101,-21.587l6.766,0l5.207,15.757l0.089,0l5.03,-15.757l6.543,0l-9.614,25.905Z" style="fill:#030404;fill-rule:nonzero;"/><path d="M377.117,159.903c4.317,0 5.608,-3.694 5.608,-7.344c0,-3.694 -1.291,-7.389 -5.608,-7.389c-4.273,0 -5.564,3.695 -5.564,7.389c0,3.65 1.291,7.344 5.564,7.344Zm0,-19.495c7.255,0 11.929,4.807 11.929,12.151c0,7.299 -4.674,12.107 -11.929,12.107c-7.211,0 -11.884,-4.808 -11.884,-12.107c0,-7.344 4.673,-12.151 11.884,-12.151Z" style="fill:#030404;fill-rule:nonzero;"/><path d="M391.358,141.031l6.009,0l0,4.273l0.089,0c1.157,-2.893 4.273,-4.896 7.344,-4.896c0.445,0 0.979,0.089 1.379,0.222l0,5.875c-0.578,-0.133 -1.513,-0.222 -2.27,-0.222c-4.629,0 -6.231,3.338 -6.231,7.389l0,10.371l-6.32,0l0,-23.012Z" style="fill:#030404;fill-rule:nonzero;"/><path d="M423.893,152.248c0,-3.74 -1.291,-7.078 -5.386,-7.078c-3.56,0 -5.118,3.116 -5.118,6.543c0,3.294 1.246,6.899 5.118,6.899c3.606,0 5.386,-3.071 5.386,-6.364Zm6.009,10.326c0,3.783 -1.335,10.192 -11.929,10.192c-4.54,0 -9.836,-2.136 -10.148,-7.388l6.276,0c0.579,2.359 2.492,3.161 4.718,3.161c3.517,0 5.119,-2.405 5.074,-5.698l0,-3.027l-0.089,0c-1.38,2.404 -4.139,3.561 -6.899,3.561c-6.899,0 -9.837,-5.252 -9.837,-11.573c0,-5.964 3.428,-11.394 9.882,-11.394c3.026,0 5.341,1.024 6.854,3.694l0.089,0l0,-3.071l6.009,0l0,21.543Z" style="fill:#030404;fill-rule:nonzero;"/><path d="M447.526,152.781c-1.068,0.935 -3.294,0.98 -5.252,1.336c-1.959,0.401 -3.739,1.068 -3.739,3.383c0,2.358 1.825,2.937 3.872,2.937c4.941,0 5.119,-3.916 5.119,-5.296l0,-2.36Zm-14.599,-4.673c0.356,-5.92 5.652,-7.7 10.815,-7.7c4.585,0 10.104,1.024 10.104,6.543l0,11.973c0,2.092 0.223,4.184 0.802,5.119l-6.41,0c-0.223,-0.712 -0.4,-1.469 -0.445,-2.226c-2.003,2.092 -4.941,2.849 -7.745,2.849c-4.362,0 -7.834,-2.181 -7.834,-6.899c0,-5.208 3.917,-6.454 7.834,-6.989c3.873,-0.578 7.478,-0.444 7.478,-3.026c0,-2.715 -1.87,-3.116 -4.095,-3.116c-2.404,0 -3.962,0.979 -4.184,3.472l-6.32,0Z" style="fill:#030404;fill-rule:nonzero;"/><path d="M457.85,141.031l6.009,0l0,3.204l0.133,0c1.603,-2.581 4.362,-3.827 7.034,-3.827c6.72,0 8.412,3.783 8.412,9.48l0,14.155l-6.321,0l0,-12.998c0,-3.783 -1.112,-5.652 -4.05,-5.652c-3.427,0 -4.896,1.914 -4.896,6.588l0,12.062l-6.321,0l0,-23.012Z" style="fill:#030404;fill-rule:nonzero;"/><path d="M482.64,141.031l6.321,0l0,23.012l-6.321,0l0,-23.012Zm6.321,-3.561l-6.321,0l0,-5.208l6.321,0l0,5.208Z" style="fill:#030404;fill-rule:nonzero;"/><path d="M491.63,159.28l11.974,-13.486l-11.083,0l0,-4.763l19.406,0l0,4.763l-11.973,13.486l12.819,0l0,4.763l-21.143,0l0,-4.763Z" style="fill:#030404;fill-rule:nonzero;"/><path d="M530.753,150.066c-0.578,-3.204 -1.958,-4.896 -5.029,-4.896c-4.006,0 -5.163,3.116 -5.252,4.896l10.281,0Zm-10.281,4.006c0.178,4.006 2.137,5.831 5.652,5.831c2.537,0 4.585,-1.558 4.985,-2.982l5.564,0c-1.78,5.43 -5.564,7.745 -10.772,7.745c-7.254,0 -11.75,-4.985 -11.75,-12.107c0,-6.899 4.763,-12.151 11.75,-12.151c7.834,0 11.618,6.587 11.173,13.664l-16.602,0Z" style="fill:#030404;fill-rule:nonzero;"/><path d="M550.826,145.17c-4.139,0 -5.563,3.561 -5.563,7.345c0,3.605 1.646,7.388 5.563,7.388c4.184,0 5.43,-3.65 5.43,-7.433c0,-3.739 -1.335,-7.3 -5.43,-7.3Zm5.52,15.935l-0.09,0c-1.469,2.492 -4.05,3.561 -6.987,3.561c-6.945,0 -10.327,-5.965 -10.327,-12.33c0,-6.187 3.427,-11.928 10.193,-11.928c2.715,0 5.386,1.157 6.854,3.427l-0.045,0l0.089,0l0,-11.573l6.322,0l0,31.781l-6.009,0l0,-2.938Z" style="fill:#030404;fill-rule:nonzero;"/><path d="M585.407,138.138l-9.524,0l0,-5.876l26.038,0l0,5.876l-9.525,0l0,25.905l-6.989,0l0,-25.905Z" style="fill:#030404;fill-rule:nonzero;"/><path d="M604.678,132.262l23.768,0l0,5.876l-16.78,0l0,6.81l15.401,0l0,5.43l-15.401,0l0,7.789l17.136,0l0,5.876l-24.124,0l0,-31.781Z" style="fill:#030404;fill-rule:nonzero;"/><path d="M638.727,158.167l6.231,0c4.05,0 7.923,-2.492 7.923,-9.525c0,-6.41 -2.226,-10.504 -9.17,-10.504l-4.984,0l0,20.029Zm-6.989,-25.905l13.709,0c8.235,0 14.421,5.164 14.421,15.713c0,9.213 -4.717,16.068 -14.421,16.068l-13.709,0l0,-31.781Z" style="fill:#030404;fill-rule:nonzero;"/><path d="M690.132,150.066c-0.578,-3.204 -1.958,-4.896 -5.029,-4.896c-4.006,0 -5.163,3.116 -5.252,4.896l10.281,0Zm-10.281,4.006c0.177,4.006 2.136,5.831 5.652,5.831c2.537,0 4.585,-1.558 4.985,-2.982l5.564,0c-1.78,5.43 -5.564,7.745 -10.772,7.745c-7.254,0 -11.75,-4.985 -11.75,-12.107c0,-6.899 4.763,-12.151 11.75,-12.151c7.834,0 11.618,6.587 11.173,13.664l-16.602,0Z" style="fill:#030404;fill-rule:nonzero;"/><path d="M711.14,164.043l-7.033,0l-7.878,-23.012l6.631,0l4.852,15.712l0.089,0l4.851,-15.712l6.277,0l-7.789,23.012Z" style="fill:#030404;fill-rule:nonzero;"/><path d="M735.262,150.066c-0.578,-3.204 -1.958,-4.896 -5.029,-4.896c-4.006,0 -5.164,3.116 -5.252,4.896l10.281,0Zm-10.281,4.006c0.177,4.006 2.136,5.831 5.652,5.831c2.537,0 4.585,-1.558 4.985,-2.982l5.564,0c-1.781,5.43 -5.564,7.745 -10.772,7.745c-7.255,0 -11.75,-4.985 -11.75,-12.107c0,-6.899 4.763,-12.151 11.75,-12.151c7.834,0 11.617,6.587 11.172,13.664l-16.601,0Z" style="fill:#030404;fill-rule:nonzero;"/><path d="M744.43,141.031l6.009,0l0,3.204l0.133,0c1.603,-2.581 4.363,-3.827 7.033,-3.827c6.721,0 8.413,3.783 8.413,9.48l0,14.155l-6.321,0l0,-12.998c0,-3.783 -1.113,-5.652 -4.05,-5.652c-3.428,0 -4.897,1.914 -4.897,6.588l0,12.062l-6.32,0l0,-23.012Z" style="fill:#030404;fill-rule:nonzero;"/><path d="M777.943,141.031l4.629,0l0,4.228l-4.629,0l0,11.395c0,2.137 0.535,2.67 2.671,2.67c0.668,0 1.291,-0.044 1.958,-0.177l0,4.94c-1.067,0.178 -2.447,0.223 -3.694,0.223c-3.872,0 -7.255,-0.89 -7.255,-5.475l0,-13.576l-3.828,0l0,-4.228l3.828,0l0,-6.899l6.32,0l0,6.899Z" style="fill:#030404;fill-rule:nonzero;"/></g><g><path d="M29.655,27.121l-29.655,0l0,-27.121l91.88,0l0,27.121l-29.644,0l0,78.695l-32.581,0l0,-78.695Z" style="fill:#ee3523;fill-rule:nonzero;"/><path d="M96.944,0l89.192,0l0,27.121l-56.59,0l0,13.186l56.59,0l0,25.202l-56.59,0l0,13.187l56.605,0l0,27.12l-89.207,0l0,-105.816Z" style="fill:#ee3523;fill-rule:nonzero;"/><path d="M224.223,78.696l12.75,0c20.309,0 23.278,-16.455 23.278,-26.396c0,-6.656 -2.086,-25.179 -25.652,-25.179l-10.376,0l0,51.575Zm-32.6,-78.696l53.5,0c35.266,0 47.73,26.085 47.73,52.753c0,32.465 -17.192,53.063 -54.096,53.063l-47.134,0l0,-105.816Z" style="fill:#ee3523;fill-rule:nonzero;"/><path d="M339.698,65.039l-9.945,-16.491l-9.698,16.491l-23.887,0l22.677,-33.346l-21.836,-31.896l23.895,0l8.849,15.767l9.103,-15.767l23.888,0l-21.829,31.896l22.676,33.346l-23.893,0Z" style="fill:#ee3523;fill-rule:nonzero;"/></g><g><path d="M388.511,0.696l0,105.12l13.987,0l0,-36.807l17.52,-16.342l37.984,53.149l17.668,0l-46.083,-62.719l44.316,-42.401l-18.109,0l-53.296,52.413l0,-52.413l-13.987,0Z" style="fill-rule:nonzero;"/><path d="M487.006,0.696l0,105.12l13.25,0l0,-87.453l0.295,0l32.832,87.453l11.925,0l32.832,-87.453l0.294,0l0,87.453l13.25,0l0,-105.12l-19.139,0l-33.273,88.336l-33.126,-88.336l-19.14,0Z" style="fill-rule:nonzero;"/><rect x="610.495" y="0.696" width="13.987" height="105.12" style="fill-rule:nonzero;"/><path d="M676.929,12.474l0,93.342l13.986,0l0,-93.342l35.041,0l0,-11.778l-84.067,0l0,11.778l35.04,0Z" style="fill-rule:nonzero;"/><path d="M737.586,0.696l0,105.12l69.639,0l0,-11.778l-55.652,0l0,-93.342l-13.987,0Z" style="fill-rule:nonzero;"/></g></g></g></svg>