<?xml version="1.0" encoding="UTF-8" standalone="no"?><!DOCTYPE svg PUBLIC "-//W3C//DTD SVG 1.1//EN" "http://www.w3.org/Graphics/SVG/1.1/DTD/svg11.dtd"><svg width="100%" height="100%" viewBox="0 0 394 321" version="1.1" xmlns="http://www.w3.org/2000/svg" xmlns:xlink="http://www.w3.org/1999/xlink" xml:space="preserve" style="fill-rule:evenodd;clip-rule:evenodd;stroke-linejoin:round;stroke-miterlimit:1.41421;"><rect id="Artboard1" x="0" y="0" width="393.84" height="320.688" style="fill:none;"/><g><path d="M4.464,0l0,102.816l72.72,0l0,-19.008l-50.112,0l0,-83.808l-22.608,0Z" style="fill:#fff;fill-rule:nonzero;"/><path d="M108.72,16.848l0,-16.848l-20.448,0l0,16.848l20.448,0Zm-20.448,11.52l0,74.448l20.448,0l0,-74.448l-20.448,0Z" style="fill:#fff;fill-rule:nonzero;"/><path d="M166.032,102.816l25.2,-74.448l-20.304,0l-15.696,50.832l-0.288,0l-15.696,-50.832l-21.456,0l25.488,74.448l22.752,0Z" style="fill:#fff;fill-rule:nonzero;"/><path d="M220.752,16.848l0,-16.848l-20.448,0l0,16.848l20.448,0Zm-20.448,11.52l0,74.448l20.448,0l0,-74.448l-20.448,0Z" style="fill:#fff;fill-rule:nonzero;"/><path d="M236.88,28.368l0,74.448l20.448,0l0,-39.024c0,-7.584 1.248,-13.032 3.744,-16.344c2.496,-3.312 6.528,-4.968 12.096,-4.968c4.896,0 8.304,1.512 10.224,4.536c1.92,3.024 2.88,7.608 2.88,13.752l0,42.048l20.448,0l0,-45.792c0,-4.608 -0.408,-8.808 -1.224,-12.6c-0.816,-3.792 -2.232,-7.008 -4.248,-9.648c-2.016,-2.64 -4.776,-4.704 -8.28,-6.192c-3.504,-1.488 -7.992,-2.232 -13.464,-2.232c-4.32,0 -8.544,0.984 -12.672,2.952c-4.128,1.968 -7.488,5.112 -10.08,9.432l-0.432,0l0,-10.368l-19.44,0Z" style="fill:#fff;fill-rule:nonzero;"/><path d="M356.976,85.248c-3.168,0 -5.808,-0.672 -7.92,-2.016c-2.112,-1.344 -3.816,-3.072 -5.112,-5.184c-1.296,-2.112 -2.208,-4.488 -2.736,-7.128c-0.528,-2.64 -0.792,-5.304 -0.792,-7.992c0,-2.784 0.312,-5.448 0.936,-7.992c0.624,-2.544 1.632,-4.8 3.024,-6.768c1.392,-1.968 3.12,-3.528 5.184,-4.68c2.064,-1.152 4.536,-1.728 7.416,-1.728c3.36,0 6.144,0.624 8.352,1.872c2.208,1.248 3.984,2.928 5.328,5.04c1.344,2.112 2.304,4.536 2.88,7.272c0.576,2.736 0.864,5.64 0.864,8.712c0,2.688 -0.36,5.256 -1.08,7.704c-0.72,2.448 -1.8,4.632 -3.24,6.552c-1.44,1.92 -3.264,3.456 -5.472,4.608c-2.208,1.152 -4.752,1.728 -7.632,1.728Zm36.864,12.816l0,-69.696l-19.44,0l0,9.936l-0.288,0c-2.496,-4.32 -5.592,-7.392 -9.288,-9.216c-3.696,-1.824 -7.992,-2.736 -12.888,-2.736c-5.184,0 -9.768,1.008 -13.752,3.024c-3.984,2.016 -7.32,4.728 -10.008,8.136c-2.688,3.408 -4.728,7.344 -6.12,11.808c-1.392,4.464 -2.088,9.096 -2.088,13.896c0,5.088 0.6,9.912 1.8,14.472c1.2,4.56 3.096,8.544 5.688,11.952c2.592,3.408 5.904,6.096 9.936,8.064c4.032,1.968 8.832,2.952 14.4,2.952c4.512,0 8.808,-0.936 12.888,-2.808c4.08,-1.872 7.224,-4.776 9.432,-8.712l0.288,0l0,9.792c0.096,5.28 -1.176,9.648 -3.816,13.104c-2.64,3.456 -6.84,5.184 -12.6,5.184c-3.648,0 -6.864,-0.744 -9.648,-2.232c-2.784,-1.488 -4.656,-4.152 -5.616,-7.992l-20.304,0c0.288,4.224 1.464,7.848 3.528,10.872c2.064,3.024 4.656,5.496 7.776,7.416c3.12,1.92 6.576,3.336 10.368,4.248c3.792,0.912 7.512,1.368 11.16,1.368c8.544,0 15.36,-1.152 20.448,-3.456c5.088,-2.304 8.976,-5.112 11.664,-8.424c2.688,-3.312 4.44,-6.888 5.256,-10.728c0.816,-3.84 1.224,-7.248 1.224,-10.224Z" style="fill:#fff;fill-rule:nonzero;"/><path d="M20.448,173.664c0,-2.976 0.288,-5.904 0.864,-8.784c0.576,-2.88 1.56,-5.424 2.952,-7.632c1.392,-2.208 3.24,-4.008 5.544,-5.4c2.304,-1.392 5.184,-2.088 8.64,-2.088c3.456,0 6.36,0.696 8.712,2.088c2.352,1.392 4.224,3.192 5.616,5.4c1.392,2.208 2.376,4.752 2.952,7.632c0.576,2.88 0.864,5.808 0.864,8.784c0,2.976 -0.288,5.88 -0.864,8.712c-0.576,2.832 -1.56,5.376 -2.952,7.632c-1.392,2.256 -3.264,4.056 -5.616,5.4c-2.352,1.344 -5.256,2.016 -8.712,2.016c-3.456,0 -6.336,-0.672 -8.64,-2.016c-2.304,-1.344 -4.152,-3.144 -5.544,-5.4c-1.392,-2.256 -2.376,-4.8 -2.952,-7.632c-0.576,-2.832 -0.864,-5.736 -0.864,-8.712Zm-20.448,0c0,5.952 0.912,11.328 2.736,16.128c1.824,4.8 4.416,8.904 7.776,12.312c3.36,3.408 7.392,6.024 12.096,7.848c4.704,1.824 9.984,2.736 15.84,2.736c5.856,0 11.16,-0.912 15.912,-2.736c4.752,-1.824 8.808,-4.44 12.168,-7.848c3.36,-3.408 5.952,-7.512 7.776,-12.312c1.824,-4.8 2.736,-10.176 2.736,-16.128c0,-5.952 -0.912,-11.352 -2.736,-16.2c-1.824,-4.848 -4.416,-8.976 -7.776,-12.384c-3.36,-3.408 -7.416,-6.048 -12.168,-7.92c-4.752,-1.872 -10.056,-2.808 -15.912,-2.808c-5.856,0 -11.136,0.936 -15.84,2.808c-4.704,1.872 -8.736,4.512 -12.096,7.92c-3.36,3.408 -5.952,7.536 -7.776,12.384c-1.824,4.848 -2.736,10.248 -2.736,16.2Z" style="fill:#fff;fill-rule:nonzero;"/><path d="M160.128,210.816l0,-74.448l-20.448,0l0,39.024c0,7.584 -1.248,13.032 -3.744,16.344c-2.496,3.312 -6.528,4.968 -12.096,4.968c-4.896,0 -8.304,-1.512 -10.224,-4.536c-1.92,-3.024 -2.88,-7.608 -2.88,-13.752l0,-42.048l-20.448,0l0,45.792c0,4.608 0.408,8.808 1.224,12.6c0.816,3.792 2.232,7.008 4.248,9.648c2.016,2.64 4.776,4.68 8.28,6.12c3.504,1.44 7.992,2.16 13.464,2.16c4.32,0 8.544,-0.96 12.672,-2.88c4.128,-1.92 7.488,-5.04 10.08,-9.36l0.432,0l0,10.368l19.44,0Z" style="fill:#fff;fill-rule:nonzero;"/><path d="M201.6,136.368l0,-22.32l-20.448,0l0,22.32l-12.384,0l0,13.68l12.384,0l0,43.92c0,3.744 0.624,6.768 1.872,9.072c1.248,2.304 2.952,4.08 5.112,5.328c2.16,1.248 4.656,2.088 7.488,2.52c2.832,0.432 5.832,0.648 9,0.648c2.016,0 4.08,-0.048 6.192,-0.144c2.112,-0.096 4.032,-0.288 5.76,-0.576l0,-15.84c-0.96,0.192 -1.968,0.336 -3.024,0.432c-1.056,0.096 -2.16,0.144 -3.312,0.144c-3.456,0 -5.76,-0.576 -6.912,-1.728c-1.152,-1.152 -1.728,-3.456 -1.728,-6.912l0,-36.864l14.976,0l0,-13.68l-14.976,0Z" style="fill:#fff;fill-rule:nonzero;"/><rect x="2.88" y="216" width="20.448" height="102.816" style="fill:#fff;fill-rule:nonzero;"/><path d="M57.6,281.664c0,-2.976 0.288,-5.904 0.864,-8.784c0.576,-2.88 1.56,-5.424 2.952,-7.632c1.392,-2.208 3.24,-4.008 5.544,-5.4c2.304,-1.392 5.184,-2.088 8.64,-2.088c3.456,0 6.36,0.696 8.712,2.088c2.352,1.392 4.224,3.192 5.616,5.4c1.392,2.208 2.376,4.752 2.952,7.632c0.576,2.88 0.864,5.808 0.864,8.784c0,2.976 -0.288,5.88 -0.864,8.712c-0.576,2.832 -1.56,5.376 -2.952,7.632c-1.392,2.256 -3.264,4.056 -5.616,5.4c-2.352,1.344 -5.256,2.016 -8.712,2.016c-3.456,0 -6.336,-0.672 -8.64,-2.016c-2.304,-1.344 -4.152,-3.144 -5.544,-5.4c-1.392,-2.256 -2.376,-4.8 -2.952,-7.632c-0.576,-2.832 -0.864,-5.736 -0.864,-8.712Zm-20.448,0c0,5.952 0.912,11.328 2.736,16.128c1.824,4.8 4.416,8.904 7.776,12.312c3.36,3.408 7.392,6.024 12.096,7.848c4.704,1.824 9.984,2.736 15.84,2.736c5.856,0 11.16,-0.912 15.912,-2.736c4.752,-1.824 8.808,-4.44 12.168,-7.848c3.36,-3.408 5.952,-7.512 7.776,-12.312c1.824,-4.8 2.736,-10.176 2.736,-16.128c0,-5.952 -0.912,-11.352 -2.736,-16.2c-1.824,-4.848 -4.416,-8.976 -7.776,-12.384c-3.36,-3.408 -7.416,-6.048 -12.168,-7.92c-4.752,-1.872 -10.056,-2.808 -15.912,-2.808c-5.856,0 -11.136,0.936 -15.84,2.808c-4.704,1.872 -8.736,4.512 -12.096,7.92c-3.36,3.408 -5.952,7.536 -7.776,12.384c-1.824,4.848 -2.736,10.248 -2.736,16.2Z" style="fill:#fff;fill-rule:nonzero;"/><path d="M197.28,318.816l0,-74.448l-20.448,0l0,39.024c0,7.584 -1.248,13.032 -3.744,16.344c-2.496,3.312 -6.528,4.968 -12.096,4.968c-4.896,0 -8.304,-1.512 -10.224,-4.536c-1.92,-3.024 -2.88,-7.608 -2.88,-13.752l0,-42.048l-20.448,0l0,45.792c0,4.608 0.408,8.808 1.224,12.6c0.816,3.792 2.232,7.008 4.248,9.648c2.016,2.64 4.776,4.68 8.28,6.12c3.504,1.44 7.992,2.16 13.464,2.16c4.32,0 8.544,-0.96 12.672,-2.88c4.128,-1.92 7.488,-5.04 10.08,-9.36l0.432,0l0,10.368l19.44,0Z" style="fill:#fff;fill-rule:nonzero;"/><path d="M265.68,281.376c0,3.072 -0.288,6.048 -0.864,8.928c-0.576,2.88 -1.536,5.448 -2.88,7.704c-1.344,2.256 -3.144,4.056 -5.4,5.4c-2.256,1.344 -5.064,2.016 -8.424,2.016c-3.168,0 -5.88,-0.696 -8.136,-2.088c-2.256,-1.392 -4.128,-3.216 -5.616,-5.472c-1.488,-2.256 -2.568,-4.824 -3.24,-7.704c-0.672,-2.88 -1.008,-5.76 -1.008,-8.64c0,-3.072 0.312,-6.024 0.936,-8.856c0.624,-2.832 1.632,-5.352 3.024,-7.56c1.392,-2.208 3.24,-3.984 5.544,-5.328c2.304,-1.344 5.136,-2.016 8.496,-2.016c3.36,0 6.144,0.672 8.352,2.016c2.208,1.344 4.008,3.096 5.4,5.256c1.392,2.16 2.376,4.656 2.952,7.488c0.576,2.832 0.864,5.784 0.864,8.856Zm0.288,27.936l0,9.504l19.44,0l0,-102.816l-20.448,0l0,37.44l-0.288,0c-2.304,-3.648 -5.448,-6.408 -9.432,-8.28c-3.984,-1.872 -8.184,-2.808 -12.6,-2.808c-5.472,0 -10.272,1.08 -14.4,3.24c-4.128,2.16 -7.56,5.016 -10.296,8.568c-2.736,3.552 -4.8,7.656 -6.192,12.312c-1.392,4.656 -2.088,9.48 -2.088,14.472c0,5.184 0.696,10.176 2.088,14.976c1.392,4.8 3.456,9.048 6.192,12.744c2.736,3.696 6.216,6.624 10.44,8.784c4.224,2.16 9.12,3.24 14.688,3.24c4.896,0 9.288,-0.888 13.176,-2.664c3.888,-1.776 7.032,-4.68 9.432,-8.712l0.288,0Z" style="fill:#fff;fill-rule:nonzero;"/></g></svg>