<?xml version="1.0" encoding="UTF-8" standalone="no"?><!DOCTYPE svg PUBLIC "-//W3C//DTD SVG 1.1//EN" "http://www.w3.org/Graphics/SVG/1.1/DTD/svg11.dtd"><svg width="100%" height="100%" viewBox="0 0 208 80" version="1.1" xmlns="http://www.w3.org/2000/svg" xmlns:xlink="http://www.w3.org/1999/xlink" xml:space="preserve" style="fill-rule:evenodd;clip-rule:evenodd;stroke-linejoin:round;stroke-miterlimit:1.41421;"><rect id="Artboard1" x="0" y="0" width="207.983" height="79.471" style="fill:none;"/><g><path d="M32.336,20.445l0,26.547l-20.101,0l19.773,-26.547l0.328,0Zm0,39.328l0,17.698l14.748,0l0,-17.698l10.16,0l0,-12.781l-10.16,0l0,-45.992l-13.874,0l-33.21,44.571l0,14.202l32.336,0Z" style="fill:#fff;fill-rule:nonzero;"/><path d="M183.076,20.445l0,26.547l-20.101,0l19.773,-26.547l0.328,0Zm0,39.328l0,17.698l14.748,0l0,-17.698l10.159,0l0,-12.781l-10.159,0l0,-45.992l-13.874,0l-33.211,44.571l0,14.202l32.337,0Z" style="fill:#fff;fill-rule:nonzero;"/></g><g><circle cx="103.992" cy="39.5" r="38.5" style="fill:#ffdd67;"/><path d="M121.317,49.767c7.828,0 14.116,-6.289 14.116,-14.117c0,-2.053 -0.513,-4.107 -1.283,-5.903c-3.593,-1.669 -8.085,-2.567 -12.833,-2.567c-4.749,0 -9.24,1.027 -12.834,2.567c-0.77,1.796 -1.283,3.721 -1.283,5.903c0,7.828 6.288,14.117 14.117,14.117" style="fill:#fff;fill-rule:nonzero;"/><path d="M121.958,27.18c-0.641,0.898 -1.026,2.053 -1.026,3.208c0,3.209 2.566,5.775 5.775,5.775c3.208,0 5.775,-2.566 5.775,-5.775c0,-0.513 -0.129,-0.898 -0.129,-1.283c-3.08,-1.155 -6.673,-1.925 -10.395,-1.925" style="fill:#664e27;fill-rule:nonzero;"/><path d="M86.667,49.767c7.828,0 14.116,-6.289 14.116,-14.117c0,-2.053 -0.513,-4.107 -1.283,-5.903c-3.593,-1.669 -8.085,-2.567 -12.833,-2.567c-4.749,0 -9.24,1.027 -12.834,2.567c-0.77,1.796 -1.283,3.721 -1.283,5.903c0,7.828 6.288,14.117 14.117,14.117" style="fill:#fff;fill-rule:nonzero;"/><g><path d="M87.308,27.18c-0.641,0.898 -1.026,2.053 -1.026,3.208c0,3.209 2.566,5.775 5.775,5.775c3.208,0 5.775,-2.566 5.775,-5.775c0,-0.513 -0.129,-0.898 -0.129,-1.283c-3.08,-1.155 -6.673,-1.925 -10.395,-1.925" style="fill:#664e27;fill-rule:nonzero;"/><path d="M115.028,59.135c-6.93,-3.208 -15.143,-3.208 -22.073,0c-1.797,0.898 0.385,5.39 2.053,4.492c4.62,-2.182 11.422,-2.952 17.839,0c1.796,0.77 3.978,-3.594 2.181,-4.492" style="fill:#664e27;fill-rule:nonzero;"/></g></g></svg>