<?xml version="1.0" encoding="UTF-8" standalone="no"?>
<svg width="290px" height="43px" viewBox="0 0 290 43" version="1.1" xmlns="http://www.w3.org/2000/svg" xmlns:xlink="http://www.w3.org/1999/xlink">
    <!-- Generator: Sketch 42 (36781) - http://www.bohemiancoding.com/sketch -->
    <title>Date</title>
    <desc>Created with Sketch.</desc>
    <defs>
        <rect id="path-1" x="0" y="0" width="289.561591" height="42.5773415"></rect>
    </defs>
    <g id="Welcome" stroke="none" stroke-width="1" fill="none" fill-rule="evenodd">
        <g id="Desktop" transform="translate(-687.000000, -487.000000)">
            <g id="Hero" transform="translate(0.000000, 210.000000)">
                <g id="Date" transform="translate(687.000000, 277.000000)">
                    <g id="Group">
                        <rect id="Artboard2" x="0" y="0" width="289.561591" height="42.5773415"></rect>
                        <g id="Clipped">
                            <mask id="mask-2" fill="white">
                                <use xlink:href="#path-1"></use>
                            </mask>
                            <g id="Artboard21"></g>
                            <g id="Group" mask="url(#mask-2)" fill-rule="nonzero" fill="#FFFFFF">
                                <path d="M0.937124774,16.573878 L8.90242315,16.573878 C8.90242315,15.4810488 9.00992767,14.3777317 9.2244123,13.2649756 C9.43942134,12.1522195 9.800217,11.1375244 10.3078481,10.2198415 C10.8154792,9.30215854 11.489349,8.56014634 12.3284087,7.99432927 C13.1679928,7.4279878 14.1932188,7.14481707 15.4035624,7.14481707 C17.1996745,7.14481707 18.6732731,7.70119512 19.8254069,8.81395122 C20.9770163,9.92670732 21.5533454,11.4789024 21.5533454,13.4700122 C21.5533454,14.7196341 21.2701627,15.8323902 20.7037975,16.8082805 C20.1379566,17.7846951 19.4347197,18.6630488 18.59566,19.4438659 C17.7560759,20.2246829 16.8283906,20.9373293 15.8136528,21.5812805 C14.7983906,22.2257561 13.8418626,22.8602683 12.9435443,23.4848171 C11.1867631,24.6951098 9.51755877,25.886 7.93593128,27.0574878 C6.35482821,28.2289756 4.97824593,29.507439 3.80670886,30.8934024 C2.6356962,32.2793659 1.70801085,33.8509634 1.02470163,35.6081951 C0.341392405,37.3649024 0,39.4341463 0,41.8159268 L30.1038879,41.8159268 L30.1038879,34.6711098 L10.7179385,34.6711098 C11.7332007,33.2652195 12.9047378,32.0355244 14.2320253,30.9815 C15.5598373,29.9269512 16.9264557,28.9410976 18.3318807,28.023939 C19.7373056,27.1062561 21.1332911,26.1791341 22.5193128,25.2420488 C23.905859,24.3049634 25.1455696,23.260378 26.2384448,22.1088171 C27.3318445,20.9567317 28.2102351,19.638939 28.874141,18.155439 C29.538047,16.671939 29.87,14.8953049 29.87,12.826061 C29.87,10.8344268 29.4892767,9.03891463 28.72783,7.43795122 C27.9663834,5.8369878 26.9416817,4.48982927 25.6526763,3.397 C24.3641953,2.30364634 22.8706691,1.46409756 21.1726221,0.878353659 C19.4740506,0.292609756 17.6873779,0 15.8136528,0 C13.3536347,0 11.1767993,0.419512195 9.28314647,1.25906098 C7.38949367,2.09860976 5.81783002,3.27009756 4.56815552,4.773 C3.31900542,6.27642683 2.38188065,8.03313415 1.75730561,10.0441707 C1.13220615,12.0546829 0.858987342,14.2314268 0.937124774,16.573878 L0.937124774,16.573878 Z" id="Shape"></path>
                                <path d="M33.5010307,16.573878 L41.4663291,16.573878 C41.4663291,15.4810488 41.5738336,14.3777317 41.7883183,13.2649756 C42.0033273,12.1522195 42.3646474,11.1375244 42.8717541,10.2198415 C43.3793852,9.30215854 44.053255,8.56014634 44.8928391,7.99432927 C45.7318987,7.4279878 46.7571248,7.14481707 47.9674684,7.14481707 C49.7635805,7.14481707 51.2377034,7.70119512 52.3893128,8.81395122 C53.5414467,9.92670732 54.1172514,11.4789024 54.1172514,13.4700122 C54.1172514,14.7196341 53.8340687,15.8323902 53.2677034,16.8082805 C52.7018626,17.7846951 51.9991501,18.6630488 51.159566,19.4438659 C50.3199819,20.2246829 49.392821,20.9373293 48.3775588,21.5812805 C47.3622966,22.2257561 46.4057685,22.8602683 45.5074503,23.4848171 C43.7506691,24.6951098 42.0814647,25.886 40.4998373,27.0574878 C38.9187342,28.2289756 37.5421519,29.507439 36.3711392,30.8934024 C35.1996022,32.2793659 34.2724412,33.8509634 33.589132,35.6081951 C32.9058228,37.3649024 32.563906,39.4341463 32.563906,41.8159268 L62.6683183,41.8159268 L62.6683183,34.6711098 L43.2818445,34.6711098 C44.2971067,33.2652195 45.4686438,32.0355244 46.7959313,30.9815 C48.1237432,29.9269512 49.4903617,28.9410976 50.8957866,28.023939 C52.301736,27.1062561 53.6971971,26.1791341 55.0837432,25.2420488 C56.4697649,24.3049634 57.7094756,23.260378 58.8023508,22.1088171 C59.8957505,20.9567317 60.774141,19.638939 61.438047,18.155439 C62.101953,16.671939 62.433906,14.8953049 62.433906,12.826061 C62.433906,10.8344268 62.0531826,9.03891463 61.291736,7.43795122 C60.5302893,5.8369878 59.5055877,4.48982927 58.2171067,3.397 C56.9286257,2.30364634 55.4350995,1.46409756 53.736528,0.878353659 C52.0379566,0.292609756 50.2518083,0 48.3775588,0 C45.9175407,0 43.7407052,0.419512195 41.8470524,1.25906098 C39.9533996,2.09860976 38.381736,3.27009756 37.1320615,4.773 C35.8829114,6.27642683 34.9457866,8.03313415 34.3212116,10.0441707 C33.6961121,12.0546829 33.4228933,14.2314268 33.5010307,16.573878 L33.5010307,16.573878 Z" id="Shape"></path>
                                <rect id="Rectangle-path" x="67.4121519" y="32.796939" width="9.19504521" height="9.0189878"></rect>
                                <path d="M89.7264195,21.1423659 C89.7264195,20.4396829 89.7363834,19.5901707 89.7557866,18.594878 C89.7757143,17.599061 89.8438879,16.573878 89.9608318,15.5198537 C90.0783002,14.4658293 90.2733816,13.4212439 90.5466004,12.386622 C90.8198192,11.352 91.2005425,10.424878 91.6887703,9.60473171 C92.1769982,8.78510976 92.8015732,8.12123171 93.5630199,7.61362195 C94.3244665,7.1060122 95.2710307,6.85220732 96.4032369,6.85220732 C97.5359675,6.85220732 98.4924955,7.1060122 99.2733454,7.61362195 C100.054195,8.12123171 100.698698,8.78510976 101.205805,9.60473171 C101.713436,10.424878 102.094159,11.352 102.347975,12.386622 C102.60179,13.4212439 102.797396,14.4658293 102.933743,15.5198537 C103.070615,16.573878 103.148752,17.599061 103.168156,18.594878 C103.187559,19.5901707 103.197523,20.4396829 103.197523,21.1423659 C103.197523,22.3133293 103.158192,23.7291829 103.080054,25.3883537 C103.001917,27.0475244 102.758065,28.6484878 102.347975,30.1907195 C101.937884,31.7329512 101.274503,33.0507439 100.356781,34.1440976 C99.4390597,35.2369268 98.1212116,35.7838659 96.4032369,35.7838659 C94.7245931,35.7838659 93.4361121,35.2369268 92.5377939,34.1440976 C91.64,33.0507439 90.9860579,31.7329512 90.5759675,30.1907195 C90.165877,28.6484878 89.9220253,27.0475244 89.8438879,25.3883537 C89.7657505,23.7291829 89.7264195,22.3133293 89.7264195,21.1423659 L89.7264195,21.1423659 Z M81.4097649,21.1423659 C81.4097649,25.2420488 81.8104159,28.6678902 82.6106691,31.4204146 C83.4109222,34.172939 84.494358,36.3696098 85.8609765,38.009378 C87.2275949,39.6491463 88.8186618,40.8206341 90.6347016,41.5233171 C92.450217,42.226 94.3732369,42.5773415 96.4032369,42.5773415 C98.4730922,42.5773415 100.415515,42.226 102.231031,41.5233171 C104.046546,40.8206341 105.647577,39.6491463 107.033599,38.009378 C108.41962,36.3696098 109.51302,34.172939 110.313273,31.4204146 C111.114051,28.6678902 111.514177,25.2420488 111.514177,21.1423659 C111.514177,17.159622 111.114051,13.8119146 110.313273,11.0981951 C109.51302,8.38447561 108.41962,6.20773171 107.033599,4.56796341 C105.647577,2.92819512 104.046546,1.75723171 102.231031,1.05402439 C100.415515,0.351341463 98.4730922,0 96.4032369,0 C94.3732369,0 92.450217,0.351341463 90.6347016,1.05402439 C88.8186618,1.75723171 87.2275949,2.92819512 85.8609765,4.56796341 C84.494358,6.20773171 83.4109222,8.38447561 82.6106691,11.0981951 C81.8104159,13.8119146 81.4097649,17.159622 81.4097649,21.1423659 L81.4097649,21.1423659 Z" id="Shape"></path>
                                <path d="M131.017071,11.2445 L131.017071,25.4759268 L120.240922,25.4759268 L130.841392,11.2445 L131.017071,11.2445 Z M131.017071,32.3281341 L131.017071,41.8159268 L138.924159,41.8159268 L138.924159,32.3281341 L144.370705,32.3281341 L144.370705,25.4759268 L138.924159,25.4759268 L138.924159,0.820146341 L131.485895,0.820146341 L113.681049,24.7150366 L113.681049,32.3281341 L131.017071,32.3281341 L131.017071,32.3281341 Z" id="Shape"></path>
                                <rect id="Rectangle-path" x="148.821917" y="32.796939" width="9.19504521" height="9.0189878"></rect>
                                <path d="M163.757179,16.573878 L171.722477,16.573878 C171.722477,15.4810488 171.829458,14.3777317 172.044467,13.2649756 C172.258951,12.1522195 172.620271,11.1375244 173.127902,10.2198415 C173.635533,9.30215854 174.308879,8.56014634 175.148463,7.99432927 C175.988047,7.4279878 177.012749,7.14481707 178.223617,7.14481707 C180.019204,7.14481707 181.493327,7.70119512 182.645461,8.81395122 C183.797071,9.92670732 184.372875,11.4789024 184.372875,13.4700122 C184.372875,14.7196341 184.090217,15.8323902 183.523852,16.8082805 C182.957486,17.7846951 182.254774,18.6630488 181.41519,19.4438659 C180.575606,20.2246829 179.648445,20.9373293 178.633183,21.5812805 C177.61792,22.2257561 176.661392,22.8602683 175.763599,23.4848171 C174.006293,24.6951098 172.337089,25.886 170.755986,27.0574878 C169.174358,28.2289756 167.7983,29.507439 166.626763,30.8934024 C165.455226,32.2793659 164.528065,33.8509634 163.844756,35.6081951 C163.161447,37.3649024 162.820054,39.4341463 162.820054,41.8159268 L192.923942,41.8159268 L192.923942,34.6711098 L173.537993,34.6711098 C174.553255,33.2652195 175.724268,32.0355244 177.05208,30.9815 C178.379367,29.9269512 179.745986,28.9410976 181.151935,28.023939 C182.55736,27.1062561 183.953345,26.1791341 185.339367,25.2420488 C186.725389,24.3049634 187.965099,23.260378 189.058499,22.1088171 C190.151899,20.9567317 191.030289,19.638939 191.694195,18.155439 C192.358101,16.671939 192.68953,14.8953049 192.68953,12.826061 C192.68953,10.8344268 192.308807,9.03891463 191.547884,7.43795122 C190.786438,5.8369878 189.761212,4.48982927 188.472731,3.397 C187.18425,2.30364634 185.690723,1.46409756 183.992152,0.878353659 C182.294105,0.292609756 180.507432,0 178.633183,0 C176.173689,0 173.996854,0.419512195 172.103201,1.25906098 C170.209024,2.09860976 168.637884,3.27009756 167.38821,4.773 C166.138535,6.27642683 165.201935,8.03313415 164.576835,10.0441707 C163.95226,12.0546829 163.679042,14.2314268 163.757179,16.573878 L163.757179,16.573878 Z" id="Shape"></path>
                                <path d="M203.700615,21.1423659 C203.700615,20.4396829 203.710579,19.5901707 203.729982,18.594878 C203.749385,17.599061 203.817559,16.573878 203.935027,15.5198537 C204.051971,14.4658293 204.247052,13.4212439 204.520796,12.386622 C204.794014,11.352 205.174738,10.424878 205.662441,9.60473171 C206.150669,8.78510976 206.775244,8.12123171 207.536691,7.61362195 C208.298137,7.1060122 209.245226,6.85220732 210.377432,6.85220732 C211.509638,6.85220732 212.466166,7.1060122 213.247016,7.61362195 C214.027866,8.12123171 214.672369,8.78510976 215.18,9.60473171 C215.687631,10.424878 216.068354,11.352 216.32217,12.386622 C216.575986,13.4212439 216.771067,14.4658293 216.907939,15.5198537 C217.044286,16.573878 217.122423,17.599061 217.141826,18.594878 C217.161754,19.5901707 217.171193,20.4396829 217.171193,21.1423659 C217.171193,22.3133293 217.132387,23.7291829 217.05425,25.3883537 C216.976112,27.0475244 216.73226,28.6484878 216.32217,30.1907195 C215.91208,31.7329512 215.248174,33.0507439 214.330976,34.1440976 C213.413255,35.2369268 212.095407,35.7838659 210.377432,35.7838659 C208.698264,35.7838659 207.409783,35.2369268 206.511989,34.1440976 C205.613671,33.0507439 204.959729,31.7329512 204.549638,30.1907195 C204.140072,28.6484878 203.895696,27.0475244 203.817559,25.3883537 C203.739421,23.7291829 203.700615,22.3133293 203.700615,21.1423659 L203.700615,21.1423659 Z M195.38396,21.1423659 C195.38396,25.2420488 195.784087,28.6678902 196.58434,31.4204146 C197.385118,34.172939 198.468553,36.3696098 199.835172,38.009378 C201.20179,39.6491463 202.792857,40.8206341 204.608373,41.5233171 C206.423888,42.226 208.346908,42.5773415 210.377432,42.5773415 C212.446763,42.5773415 214.389186,42.226 216.204702,41.5233171 C218.020741,40.8206341 219.621248,39.6491463 221.007269,38.009378 C222.393816,36.3696098 223.486691,34.172939 224.287468,31.4204146 C225.087722,28.6678902 225.487848,25.2420488 225.487848,21.1423659 C225.487848,17.159622 225.087722,13.8119146 224.287468,11.0981951 C223.486691,8.38447561 222.393816,6.20773171 221.007269,4.56796341 C219.621248,2.92819512 218.020741,1.75723171 216.204702,1.05402439 C214.389186,0.351341463 212.446763,0 210.377432,0 C208.346908,0 206.423888,0.351341463 204.608373,1.05402439 C202.792857,1.75723171 201.20179,2.92819512 199.835172,4.56796341 C198.468553,6.20773171 197.385118,8.38447561 196.58434,11.0981951 C195.784087,13.8119146 195.38396,17.159622 195.38396,21.1423659 L195.38396,21.1423659 Z" id="Shape"></path>
                                <path d="M249.67689,41.8159268 L249.67689,0.820146341 L243.058282,0.820146341 C242.824394,2.38178049 242.336166,3.68960976 241.594123,4.74363415 C240.852604,5.79818293 239.944846,6.64717073 238.87085,7.29164634 C237.796854,7.93559756 236.58651,8.38447561 235.239819,8.63828049 C233.892604,8.89208537 232.496618,8.99958537 231.051863,8.96078049 L231.051863,15.2272439 L241.360235,15.2272439 L241.360235,41.8159268 L249.67689,41.8159268 L249.67689,41.8159268 Z" id="Shape"></path>
                                <path d="M289.561591,7.96496341 L289.561591,0.820146341 L261.565841,0.820146341 L261.565841,8.55070732 L281.010524,8.55070732 C277.106275,13.274939 273.953508,18.4679756 271.552224,24.1292927 C269.150416,29.7906098 267.715624,35.6863293 267.247324,41.8159268 L276.149747,41.8159268 C276.188553,39.0828049 276.510542,36.1352073 277.115714,32.9726098 C277.72141,29.8100122 278.580398,26.6867439 279.693201,23.6022805 C280.806004,20.5178171 282.192025,17.6090244 283.851266,14.8759024 C285.510506,12.1427805 287.414123,9.83913415 289.561591,7.96496341 L289.561591,7.96496341 Z" id="Shape"></path>
                            </g>
                        </g>
                    </g>
                </g>
            </g>
        </g>
    </g>
</svg>