<?xml version="1.0" encoding="UTF-8" standalone="no"?><!DOCTYPE svg PUBLIC "-//W3C//DTD SVG 1.1//EN" "http://www.w3.org/Graphics/SVG/1.1/DTD/svg11.dtd"><svg width="100%" height="100%" viewBox="0 0 373 321" version="1.1" xmlns="http://www.w3.org/2000/svg" xmlns:xlink="http://www.w3.org/1999/xlink" xml:space="preserve" style="fill-rule:evenodd;clip-rule:evenodd;stroke-linejoin:round;stroke-miterlimit:1.41421;"><rect id="Artboard1" x="0" y="0" width="372.833" height="321" style="fill:none;"/><clipPath id="_clip1"><rect id="Artboard11" x="0" y="0" width="372.833" height="321"/></clipPath><g clip-path="url(#_clip1)"><g><path d="M4.165,0l0,95.929l67.849,0l0,-17.735l-46.755,0l0,-78.194l-21.094,0Z" style="fill:#fff;fill-rule:nonzero;"/><rect x="83.837" y="0" width="21.094" height="95.929" style="fill:#fff;fill-rule:nonzero;"/><path d="M168.077,95.929l31.842,-95.929l-21.765,0l-21.631,67.446l-0.269,0l-21.362,-67.446l-21.631,0l31.036,95.929l23.78,0Z" style="fill:#fff;fill-rule:nonzero;"/><rect x="208.115" y="0" width="21.094" height="95.929" style="fill:#fff;fill-rule:nonzero;"/><path d="M247.749,0l0,95.929l19.751,0l0,-64.221l0.268,0l39.903,64.221l21.094,0l0,-95.929l-19.75,0l0,64.356l-0.269,0l-40.037,-64.356l-20.96,0Z" style="fill:#fff;fill-rule:nonzero;"/></g><g><path d="M21.094,159.862c0,-4.21 0.47,-8.285 1.41,-12.226c0.941,-3.941 2.441,-7.457 4.501,-10.547c2.06,-3.09 4.747,-5.554 8.061,-7.39c3.315,-1.836 7.345,-2.754 12.092,-2.754c4.748,0 8.778,0.918 12.092,2.754c3.314,1.836 6.001,4.3 8.062,7.39c2.06,3.09 3.56,6.606 4.5,10.547c0.941,3.941 1.411,8.016 1.411,12.226c0,4.03 -0.47,7.949 -1.411,11.756c-0.94,3.807 -2.44,7.233 -4.5,10.278c-2.061,3.045 -4.748,5.486 -8.062,7.322c-3.314,1.836 -7.344,2.755 -12.092,2.755c-4.747,0 -8.777,-0.919 -12.092,-2.755c-3.314,-1.836 -6.001,-4.277 -8.061,-7.322c-2.06,-3.045 -3.56,-6.471 -4.501,-10.278c-0.94,-3.807 -1.41,-7.726 -1.41,-11.756Zm-21.094,0c0,6.986 1.075,13.502 3.225,19.548c2.149,6.046 5.239,11.309 9.27,15.787c4.031,4.478 8.979,7.994 14.846,10.547c5.867,2.553 12.473,3.829 19.817,3.829c7.435,0 14.063,-1.276 19.885,-3.829c5.822,-2.553 10.748,-6.069 14.779,-10.547c4.03,-4.478 7.121,-9.741 9.27,-15.787c2.15,-6.046 3.225,-12.562 3.225,-19.548c0,-7.166 -1.075,-13.816 -3.225,-19.952c-2.149,-6.135 -5.24,-11.487 -9.27,-16.055c-4.031,-4.568 -8.957,-8.151 -14.779,-10.749c-5.822,-2.597 -12.45,-3.896 -19.885,-3.896c-7.344,0 -13.95,1.299 -19.817,3.896c-5.867,2.598 -10.815,6.181 -14.846,10.749c-4.031,4.568 -7.121,9.92 -9.27,16.055c-2.15,6.136 -3.225,12.786 -3.225,19.952Z" style="fill:#fff;fill-rule:nonzero;"/><path d="M190.111,171.148l0,-59.654l-21.093,0l0,59.654c0,7.165 -1.433,12.427 -4.3,15.786c-2.866,3.359 -8.061,5.039 -15.585,5.039c-4.299,0 -7.725,-0.605 -10.278,-1.814c-2.552,-1.209 -4.545,-2.777 -5.979,-4.703c-1.433,-1.925 -2.373,-4.142 -2.821,-6.65c-0.448,-2.508 -0.672,-5.061 -0.672,-7.658l0,-59.654l-21.093,0l0,59.654c0,13.077 3.56,22.75 10.681,29.02c7.121,6.27 17.175,9.405 30.162,9.405c12.809,0 22.841,-3.157 30.096,-9.472c7.255,-6.315 10.882,-15.966 10.882,-28.953Z" style="fill:#fff;fill-rule:nonzero;"/><path d="M229.477,129.229l0,78.194l21.094,0l0,-78.194l28.752,0l0,-17.735l-78.598,0l0,17.735l28.752,0Z" style="fill:#fff;fill-rule:nonzero;"/></g><g><path d="M4.165,222.921l0,95.929l67.849,0l0,-17.734l-46.755,0l0,-78.195l-21.094,0Z" style="fill:#fff;fill-rule:nonzero;"/><path d="M100.766,271.289c0,-4.21 0.47,-8.285 1.41,-12.226c0.941,-3.941 2.441,-7.457 4.501,-10.547c2.06,-3.09 4.748,-5.553 8.062,-7.39c3.314,-1.836 7.344,-2.754 12.092,-2.754c4.747,0 8.777,0.918 12.091,2.754c3.314,1.837 6.002,4.3 8.062,7.39c2.06,3.09 3.56,6.606 4.501,10.547c0.94,3.941 1.41,8.016 1.41,12.226c0,4.031 -0.47,7.949 -1.41,11.756c-0.941,3.807 -2.441,7.233 -4.501,10.278c-2.06,3.045 -4.748,5.486 -8.062,7.322c-3.314,1.836 -7.344,2.755 -12.091,2.755c-4.748,0 -8.778,-0.919 -12.092,-2.755c-3.314,-1.836 -6.002,-4.277 -8.062,-7.322c-2.06,-3.045 -3.56,-6.471 -4.501,-10.278c-0.94,-3.807 -1.41,-7.725 -1.41,-11.756Zm-21.094,0c0,6.986 1.075,13.502 3.225,19.548c2.149,6.046 5.239,11.309 9.27,15.787c4.031,4.479 8.979,7.994 14.846,10.547c5.867,2.553 12.473,3.829 19.818,3.829c7.434,0 14.062,-1.276 19.884,-3.829c5.822,-2.553 10.748,-6.068 14.779,-10.547c4.031,-4.478 7.121,-9.741 9.27,-15.787c2.15,-6.046 3.225,-12.562 3.225,-19.548c0,-7.166 -1.075,-13.816 -3.225,-19.952c-2.149,-6.135 -5.239,-11.487 -9.27,-16.055c-4.031,-4.568 -8.957,-8.151 -14.779,-10.748c-5.822,-2.598 -12.45,-3.897 -19.884,-3.897c-7.345,0 -13.951,1.299 -19.818,3.897c-5.867,2.597 -10.815,6.18 -14.846,10.748c-4.031,4.568 -7.121,9.92 -9.27,16.055c-2.15,6.136 -3.225,12.786 -3.225,19.952Z" style="fill:#fff;fill-rule:nonzero;"/><path d="M269.784,282.575l0,-59.654l-21.094,0l0,59.654c0,7.165 -1.433,12.427 -4.299,15.786c-2.867,3.359 -8.062,5.039 -15.586,5.039c-4.299,0 -7.725,-0.605 -10.278,-1.814c-2.552,-1.209 -4.545,-2.777 -5.978,-4.703c-1.434,-1.925 -2.374,-4.142 -2.822,-6.65c-0.448,-2.508 -0.672,-5.061 -0.672,-7.658l0,-59.654l-21.093,0l0,59.654c0,13.077 3.56,22.75 10.681,29.02c7.121,6.27 17.175,9.405 30.162,9.405c12.809,0 22.841,-3.157 30.096,-9.472c7.255,-6.315 10.883,-15.966 10.883,-28.953Z" style="fill:#fff;fill-rule:nonzero;"/><path d="M309.015,301.116l0,-60.46l15.048,0c5.195,0 9.561,0.739 13.099,2.217c3.538,1.478 6.382,3.605 8.532,6.382c2.149,2.776 3.695,6.113 4.635,10.009c0.94,3.896 1.411,8.263 1.411,13.1c0,5.284 -0.672,9.763 -2.016,13.435c-1.343,3.673 -3.135,6.651 -5.374,8.935c-2.239,2.284 -4.792,3.918 -7.658,4.904c-2.866,0.985 -5.822,1.478 -8.867,1.478l-18.81,0Zm-21.094,-78.195l0,95.929l41.382,0c7.344,0 13.726,-1.231 19.145,-3.694c5.419,-2.464 9.942,-5.845 13.57,-10.144c3.627,-4.3 6.337,-9.405 8.128,-15.317c1.792,-5.911 2.687,-12.36 2.687,-19.347c0,-7.971 -1.097,-14.913 -3.291,-20.825c-2.195,-5.911 -5.24,-10.837 -9.136,-14.779c-3.897,-3.941 -8.51,-6.896 -13.839,-8.867c-5.329,-1.97 -11.084,-2.956 -17.264,-2.956l-41.382,0Z" style="fill:#fff;fill-rule:nonzero;"/></g></g></svg>