<?xml version="1.0" encoding="UTF-8"?>
<svg width="50px" height="170px" viewBox="0 0 50 170" version="1.1" xmlns="http://www.w3.org/2000/svg" xmlns:xlink="http://www.w3.org/1999/xlink">
    <!-- Generator: Sketch 41.2 (35397) - http://www.bohemiancoding.com/sketch -->
    <title>TEDx_Logo</title>
    <desc>Created with Sketch.</desc>
    <defs>
        <rect id="path-1" x="5.68434189e-14" y="-1.70530257e-13" width="170" height="49.5703"></rect>
    </defs>
    <g id="Welcome" stroke="none" stroke-width="1" fill="none" fill-rule="evenodd">
        <g id="Desktop-HD" transform="translate(-75.000000, -745.000000)">
            <g id="TEDx_Logo" transform="translate(100.000000, 830.000000) rotate(-90.000000) translate(-100.000000, -830.000000) translate(15.000000, 805.000000)">
                <g id="Group">
                    <g id="Clipped">
                        <mask id="mask-2" fill="white">
                            <use xlink:href="#path-1"></use>
                        </mask>
                        <g id="Artboard11"></g>
                        <g id="Group" mask="url(#mask-2)" fill="#FFFFFF">
                            <polygon id="Shape" points="13.8652 12.7755 0 12.7755 0 0.0952 42.959 0.0952 42.959 12.7755 29.0989 12.7755 29.0989 49.5703 13.8652 49.5703 13.8652 12.7755"></polygon>
                            <polygon id="Shape" points="45.3271 0.0952 87.0298 0.0952 87.0298 12.7755 60.57015 12.7755 60.57015 18.94055 87.0298 18.94055 87.0298 30.7241 60.57015 30.7241 60.57015 36.89 87.0366 36.89 87.0366 49.5703 45.3271 49.5703 45.3271 0.0952"></polygon>
                            <path d="M104.8373,36.89 L110.79835,36.89 C120.29455,36.89 121.6826,29.1958 121.6826,24.548 C121.6826,21.43615 120.7068,12.7755 109.6891,12.7755 L104.8373,12.7755 L104.8373,36.89 Z M89.5951,0.0952 L114.6089,0.0952 C131.09805,0.0952 136.92565,12.291 136.92565,24.75965 C136.92565,39.93895 128.8872,49.5703 111.63305,49.5703 L89.5951,49.5703 L89.5951,0.0952 L89.5951,0.0952 Z" id="Shape"></path>
                            <polygon id="Shape" points="158.82845 30.5048 154.17895 22.7936 149.6442 30.5048 138.47605 30.5048 149.07895 14.91325 138.86875 -2.84217094e-14 150.04115 -2.84217094e-14 154.17895 7.37205 158.4349 -2.84217094e-14 169.6039 -2.84217094e-14 159.39795 14.91325 170 30.5048"></polygon>
                        </g>
                    </g>
                </g>
            </g>
        </g>
    </g>
</svg>